<svg width="56" height="64" viewBox="0 0 56 64" fill="none" xmlns="http://www.w3.org/2000/svg">
<mask id="path-1-outside-1_1_267" maskUnits="userSpaceOnUse" x="0" y="7.56909" width="28" height="32" fill="black">
<rect fill="white" y="7.56909" width="28" height="32"/>
<path d="M8.35945 9.56909C6.59986 12.1118 3.9967 16.5708 2.73363 22.6931C1.67729 27.8132 1.95682 32.1646 2.36787 35.0127C5.12722 37.026 7.37782 37.4325 8.89281 37.4481C12.4268 37.4843 16.4341 35.4385 20.2663 35.3458C21.0589 35.3267 21.8755 35.3512 21.8755 35.3512C23.5415 35.4013 24.9297 35.5807 25.9358 35.7491C25.0509 35.4993 11.0552 31.3178 8.16892 19.2056C7.2641 15.4086 7.72769 11.9937 8.35945 9.56909Z"/>
</mask>
<path d="M8.35945 9.56909C6.59986 12.1118 3.9967 16.5708 2.73363 22.6931C1.67729 27.8132 1.95682 32.1646 2.36787 35.0127C5.12722 37.026 7.37782 37.4325 8.89281 37.4481C12.4268 37.4843 16.4341 35.4385 20.2663 35.3458C21.0589 35.3267 21.8755 35.3512 21.8755 35.3512C23.5415 35.4013 24.9297 35.5807 25.9358 35.7491C25.0509 35.4993 11.0552 31.3178 8.16892 19.2056C7.2641 15.4086 7.72769 11.9937 8.35945 9.56909Z" fill="#EA9127"/>
<path d="M8.35945 9.56909C6.59986 12.1118 3.9967 16.5708 2.73363 22.6931C1.67729 27.8132 1.95682 32.1646 2.36787 35.0127C5.12722 37.026 7.37782 37.4325 8.89281 37.4481C12.4268 37.4843 16.4341 35.4385 20.2663 35.3458C21.0589 35.3267 21.8755 35.3512 21.8755 35.3512C23.5415 35.4013 24.9297 35.5807 25.9358 35.7491C25.0509 35.4993 11.0552 31.3178 8.16892 19.2056C7.2641 15.4086 7.72769 11.9937 8.35945 9.56909Z" stroke="white" stroke-width="4" stroke-linejoin="round" mask="url(#path-1-outside-1_1_267)"/>
<mask id="path-2-outside-2_1_267" maskUnits="userSpaceOnUse" x="-0.344086" y="34.5106" width="34" height="29" fill="black">
<rect fill="white" x="-0.344086" y="34.5106" width="34" height="29"/>
<path d="M2.65591 36.7525C3.29011 39.7599 4.70835 44.3804 8.15168 48.9453C15.4011 58.5567 26.1306 60.636 28.9572 61.0933C28.4839 58.3965 28.1049 54.5372 28.6484 49.9633C29.1945 45.3669 30.4773 41.6888 31.5753 39.1728C26.6193 36.6017 22.7335 36.3319 20.0594 36.587C15.0303 37.0669 11.4057 39.678 6.10969 38.2394C4.57369 37.8222 3.39531 37.1996 2.65598 36.7525L2.65591 36.7525Z"/>
</mask>
<path d="M2.65591 36.7525C3.29011 39.7599 4.70835 44.3804 8.15168 48.9453C15.4011 58.5567 26.1306 60.636 28.9572 61.0933C28.4839 58.3965 28.1049 54.5372 28.6484 49.9633C29.1945 45.3669 30.4773 41.6888 31.5753 39.1728C26.6193 36.6017 22.7335 36.3319 20.0594 36.587C15.0303 37.0669 11.4057 39.678 6.10969 38.2394C4.57369 37.8222 3.39531 37.1996 2.65598 36.7525L2.65591 36.7525Z" fill="#EA9127"/>
<path d="M2.65591 36.7525C3.29011 39.7599 4.70835 44.3804 8.15168 48.9453C15.4011 58.5567 26.1306 60.636 28.9572 61.0933C28.4839 58.3965 28.1049 54.5372 28.6484 49.9633C29.1945 45.3669 30.4773 41.6888 31.5753 39.1728C26.6193 36.6017 22.7335 36.3319 20.0594 36.587C15.0303 37.0669 11.4057 39.678 6.10969 38.2394C4.57369 37.8222 3.39531 37.1996 2.65598 36.7525L2.65591 36.7525Z" stroke="white" stroke-width="4" stroke-linejoin="round" mask="url(#path-2-outside-2_1_267)"/>
<mask id="path-3-outside-3_1_267" maskUnits="userSpaceOnUse" x="8.01143" y="36.1731" width="26" height="27" fill="black">
<rect fill="white" x="8.01143" y="36.1731" width="26" height="27"/>
<path d="M10.0114 51.1735C12.3331 51.099 15.6041 50.7021 19.2017 49.2497C26.1106 46.4609 29.9933 41.4874 31.5753 39.1731C31.0005 40.4873 30.4627 41.9203 29.9995 43.4716C27.9386 50.3738 28.2439 56.6405 28.9572 61.0936C24.3494 60.287 17.9847 58.362 12.3653 53.4604C11.5057 52.7105 10.7234 51.9434 10.0114 51.1735Z"/>
</mask>
<path d="M10.0114 51.1735C12.3331 51.099 15.6041 50.7021 19.2017 49.2497C26.1106 46.4609 29.9933 41.4874 31.5753 39.1731C31.0005 40.4873 30.4627 41.9203 29.9995 43.4716C27.9386 50.3738 28.2439 56.6405 28.9572 61.0936C24.3494 60.287 17.9847 58.362 12.3653 53.4604C11.5057 52.7105 10.7234 51.9434 10.0114 51.1735Z" fill="#903518"/>
<path d="M10.0114 51.1735C12.3331 51.099 15.6041 50.7021 19.2017 49.2497C26.1106 46.4609 29.9933 41.4874 31.5753 39.1731C31.0005 40.4873 30.4627 41.9203 29.9995 43.4716C27.9386 50.3738 28.2439 56.6405 28.9572 61.0936C24.3494 60.287 17.9847 58.362 12.3653 53.4604C11.5057 52.7105 10.7234 51.9434 10.0114 51.1735Z" stroke="white" stroke-width="4" stroke-linejoin="round" mask="url(#path-3-outside-3_1_267)"/>
<mask id="path-4-outside-4_1_267" maskUnits="userSpaceOnUse" x="0.00388336" y="7.56909" width="19" height="26" fill="black">
<rect fill="white" x="0.00388336" y="7.56909" width="19" height="26"/>
<path d="M8.35994 9.56909C7.02313 11.4997 5.51064 14.0864 4.29279 17.321C2.47266 22.1553 2.04822 26.4776 2.00388 29.4381C2.7452 28.6863 3.49254 28.2133 4.14954 27.9067C9.34727 25.4805 15.5834 30.335 16.0528 30.7105C14.6177 29.6599 9.25886 25.4761 7.93723 18.0836C7.29176 14.4733 7.84722 11.4295 8.36 9.56916L8.35994 9.56909Z"/>
</mask>
<path d="M8.35994 9.56909C7.02313 11.4997 5.51064 14.0864 4.29279 17.321C2.47266 22.1553 2.04822 26.4776 2.00388 29.4381C2.7452 28.6863 3.49254 28.2133 4.14954 27.9067C9.34727 25.4805 15.5834 30.335 16.0528 30.7105C14.6177 29.6599 9.25886 25.4761 7.93723 18.0836C7.29176 14.4733 7.84722 11.4295 8.36 9.56916L8.35994 9.56909Z" fill="#F6D365"/>
<path d="M8.35994 9.56909C7.02313 11.4997 5.51064 14.0864 4.29279 17.321C2.47266 22.1553 2.04822 26.4776 2.00388 29.4381C2.7452 28.6863 3.49254 28.2133 4.14954 27.9067C9.34727 25.4805 15.5834 30.335 16.0528 30.7105C14.6177 29.6599 9.25886 25.4761 7.93723 18.0836C7.29176 14.4733 7.84722 11.4295 8.36 9.56916L8.35994 9.56909Z" stroke="white" stroke-width="4" stroke-linejoin="round" mask="url(#path-4-outside-4_1_267)"/>
<mask id="path-5-outside-5_1_267" maskUnits="userSpaceOnUse" x="0.655914" y="34.7525" width="33" height="19" fill="black">
<rect fill="white" x="0.655914" y="34.7525" width="33" height="19"/>
<path d="M2.65598 36.7525C4.13233 38.4265 7.3176 41.5404 12.3375 43.0174C22.1932 45.917 30.499 39.9703 31.5752 39.1728C30.2116 41.2157 27.1429 45.2156 21.7089 48.0798C16.8779 50.6264 12.4195 51.0937 10.0113 51.1732C8.62712 49.66 6.90776 47.4735 5.4104 44.5656C3.86203 41.5587 3.07619 38.8004 2.65591 36.7525H2.65598Z"/>
</mask>
<path d="M2.65598 36.7525C4.13233 38.4265 7.3176 41.5404 12.3375 43.0174C22.1932 45.917 30.499 39.9703 31.5752 39.1728C30.2116 41.2157 27.1429 45.2156 21.7089 48.0798C16.8779 50.6264 12.4195 51.0937 10.0113 51.1732C8.62712 49.66 6.90776 47.4735 5.4104 44.5656C3.86203 41.5587 3.07619 38.8004 2.65591 36.7525H2.65598Z" fill="#CC5520"/>
<path d="M2.65598 36.7525C4.13233 38.4265 7.3176 41.5404 12.3375 43.0174C22.1932 45.917 30.499 39.9703 31.5752 39.1728C30.2116 41.2157 27.1429 45.2156 21.7089 48.0798C16.8779 50.6264 12.4195 51.0937 10.0113 51.1732C8.62712 49.66 6.90776 47.4735 5.4104 44.5656C3.86203 41.5587 3.07619 38.8004 2.65591 36.7525H2.65598Z" stroke="white" stroke-width="4" stroke-linejoin="round" mask="url(#path-5-outside-5_1_267)"/>
<mask id="path-6-outside-6_1_267" maskUnits="userSpaceOnUse" x="23.3694" y="0" width="12" height="13" fill="black">
<rect fill="white" x="23.3694" width="12" height="13"/>
<path d="M27.142 2C26.5706 3.03263 25.82 4.69042 25.511 6.85241C25.2716 8.52712 25.3753 9.95837 25.532 10.9852C26.5904 10.602 27.761 10.2296 29.0371 9.89795C30.4251 9.53726 31.7292 9.27919 32.9236 9.09436C32.5396 8.09665 31.8998 6.75708 30.8264 5.37125C29.5341 3.70264 28.131 2.63541 27.1419 2L27.142 2Z"/>
</mask>
<path d="M27.142 2C26.5706 3.03263 25.82 4.69042 25.511 6.85241C25.2716 8.52712 25.3753 9.95837 25.532 10.9852C26.5904 10.602 27.761 10.2296 29.0371 9.89795C30.4251 9.53726 31.7292 9.27919 32.9236 9.09436C32.5396 8.09665 31.8998 6.75708 30.8264 5.37125C29.5341 3.70264 28.131 2.63541 27.1419 2L27.142 2Z" fill="#EA9127"/>
<path d="M27.142 2C26.5706 3.03263 25.82 4.69042 25.511 6.85241C25.2716 8.52712 25.3753 9.95837 25.532 10.9852C26.5904 10.602 27.761 10.2296 29.0371 9.89795C30.4251 9.53726 31.7292 9.27919 32.9236 9.09436C32.5396 8.09665 31.8998 6.75708 30.8264 5.37125C29.5341 3.70264 28.131 2.63541 27.1419 2L27.142 2Z" stroke="white" stroke-width="4" stroke-linejoin="round" mask="url(#path-6-outside-6_1_267)"/>
<mask id="path-7-outside-7_1_267" maskUnits="userSpaceOnUse" x="44.1549" y="0.892517" width="12" height="14" fill="black">
<rect fill="white" x="44.1549" y="0.892517" width="12" height="14"/>
<path d="M52.4233 2.89252C51.4603 3.41197 50.0994 4.2868 48.7698 5.69537C47.4181 7.12739 46.6171 8.56184 46.1549 9.56314C47.2939 9.82332 48.5314 10.159 49.8421 10.5949C51.1457 11.0284 52.3319 11.4981 53.3953 11.9692C53.6404 10.9119 53.8891 9.2774 53.6705 7.30107C53.4574 5.37286 52.8816 3.86294 52.4234 2.89252H52.4233Z"/>
</mask>
<path d="M52.4233 2.89252C51.4603 3.41197 50.0994 4.2868 48.7698 5.69537C47.4181 7.12739 46.6171 8.56184 46.1549 9.56314C47.2939 9.82332 48.5314 10.159 49.8421 10.5949C51.1457 11.0284 52.3319 11.4981 53.3953 11.9692C53.6404 10.9119 53.8891 9.2774 53.6705 7.30107C53.4574 5.37286 52.8816 3.86294 52.4234 2.89252H52.4233Z" fill="#EA9127"/>
<path d="M52.4233 2.89252C51.4603 3.41197 50.0994 4.2868 48.7698 5.69537C47.4181 7.12739 46.6171 8.56184 46.1549 9.56314C47.2939 9.82332 48.5314 10.159 49.8421 10.5949C51.1457 11.0284 52.3319 11.4981 53.3953 11.9692C53.6404 10.9119 53.8891 9.2774 53.6705 7.30107C53.4574 5.37286 52.8816 3.86294 52.4234 2.89252H52.4233Z" stroke="white" stroke-width="4" stroke-linejoin="round" mask="url(#path-7-outside-7_1_267)"/>
<mask id="path-8-outside-8_1_267" maskUnits="userSpaceOnUse" x="23.3222" y="8.01233" width="14" height="19" fill="black">
<rect fill="white" x="23.3222" y="8.01233" width="14" height="19"/>
<path d="M25.4634 12.4245C25.3027 14.1184 25.2425 16.2078 25.4819 18.5785C25.737 21.1054 26.2624 23.2583 26.7998 24.9528C28.2364 21.5531 30.0144 19.4278 31.4464 18.084C32.7525 16.8582 34.1981 15.8815 34.7904 13.9334C35.2453 12.4371 35.0001 11.015 34.7012 10.0123C33.4791 10.1391 32.1115 10.3531 30.6382 10.7047C28.6319 11.1835 26.8981 11.8056 25.4634 12.4245Z"/>
</mask>
<path d="M25.4634 12.4245C25.3027 14.1184 25.2425 16.2078 25.4819 18.5785C25.737 21.1054 26.2624 23.2583 26.7998 24.9528C28.2364 21.5531 30.0144 19.4278 31.4464 18.084C32.7525 16.8582 34.1981 15.8815 34.7904 13.9334C35.2453 12.4371 35.0001 11.015 34.7012 10.0123C33.4791 10.1391 32.1115 10.3531 30.6382 10.7047C28.6319 11.1835 26.8981 11.8056 25.4634 12.4245Z" fill="#E39334"/>
<path d="M25.4634 12.4245C25.3027 14.1184 25.2425 16.2078 25.4819 18.5785C25.737 21.1054 26.2624 23.2583 26.7998 24.9528C28.2364 21.5531 30.0144 19.4278 31.4464 18.084C32.7525 16.8582 34.1981 15.8815 34.7904 13.9334C35.2453 12.4371 35.0001 11.015 34.7012 10.0123C33.4791 10.1391 32.1115 10.3531 30.6382 10.7047C28.6319 11.1835 26.8981 11.8056 25.4634 12.4245Z" stroke="white" stroke-width="4" stroke-linejoin="round" mask="url(#path-8-outside-8_1_267)"/>
<mask id="path-9-outside-9_1_267" maskUnits="userSpaceOnUse" x="28.7885" y="7.80641" width="22" height="20" fill="black">
<rect fill="white" x="28.7885" y="7.80641" width="22" height="20"/>
<path d="M35.9312 9.89727C36.1239 10.5441 36.3555 11.6149 36.2343 12.9323C36.1882 13.4343 36.0756 14.5433 35.4464 15.7331C34.6514 17.2365 33.8091 17.3988 31.8866 19.6162C31.3934 20.185 31.0187 20.6705 30.7885 20.9781C33.5868 22.3825 36.3849 23.7869 39.1832 25.1914C40.5378 24.4723 46.7516 20.9986 47.8346 14.5214C47.9909 13.5864 48.0618 12.4601 47.913 11.1668C46.1434 10.6498 43.9517 10.1656 41.4133 9.93962C39.3567 9.75658 37.5071 9.78176 35.9312 9.8974L35.9312 9.89727Z"/>
</mask>
<path d="M35.9312 9.89727C36.1239 10.5441 36.3555 11.6149 36.2343 12.9323C36.1882 13.4343 36.0756 14.5433 35.4464 15.7331C34.6514 17.2365 33.8091 17.3988 31.8866 19.6162C31.3934 20.185 31.0187 20.6705 30.7885 20.9781C33.5868 22.3825 36.3849 23.7869 39.1832 25.1914C40.5378 24.4723 46.7516 20.9986 47.8346 14.5214C47.9909 13.5864 48.0618 12.4601 47.913 11.1668C46.1434 10.6498 43.9517 10.1656 41.4133 9.93962C39.3567 9.75658 37.5071 9.78176 35.9312 9.8974L35.9312 9.89727Z" fill="#F6D365"/>
<path d="M35.9312 9.89727C36.1239 10.5441 36.3555 11.6149 36.2343 12.9323C36.1882 13.4343 36.0756 14.5433 35.4464 15.7331C34.6514 17.2365 33.8091 17.3988 31.8866 19.6162C31.3934 20.185 31.0187 20.6705 30.7885 20.9781C33.5868 22.3825 36.3849 23.7869 39.1832 25.1914C40.5378 24.4723 46.7516 20.9986 47.8346 14.5214C47.9909 13.5864 48.0618 12.4601 47.913 11.1668C46.1434 10.6498 43.9517 10.1656 41.4133 9.93962C39.3567 9.75658 37.5071 9.78176 35.9312 9.8974L35.9312 9.89727Z" stroke="white" stroke-width="4" stroke-linejoin="round" mask="url(#path-9-outside-9_1_267)"/>
<mask id="path-10-outside-10_1_267" maskUnits="userSpaceOnUse" x="43.6211" y="9.51508" width="12" height="19" fill="black">
<rect fill="white" x="43.6211" y="9.51508" width="12" height="19"/>
<path d="M53.4497 13.2442C53.5602 14.1838 53.6249 15.2007 53.6162 16.2855C53.5845 20.2749 52.5744 23.5829 51.5763 25.9392C51.5718 25.7516 51.4811 23.5744 49.5722 22.3325C47.7512 21.1478 45.8268 21.8233 45.6211 21.8996C46.389 21.0401 47.3895 19.7144 48.1505 17.8968C49.2632 15.2398 49.3101 12.8541 49.2338 11.5151C50.6392 12.0915 52.0444 12.6679 53.4497 13.2443V13.2442Z"/>
</mask>
<path d="M53.4497 13.2442C53.5602 14.1838 53.6249 15.2007 53.6162 16.2855C53.5845 20.2749 52.5744 23.5829 51.5763 25.9392C51.5718 25.7516 51.4811 23.5744 49.5722 22.3325C47.7512 21.1478 45.8268 21.8233 45.6211 21.8996C46.389 21.0401 47.3895 19.7144 48.1505 17.8968C49.2632 15.2398 49.3101 12.8541 49.2338 11.5151C50.6392 12.0915 52.0444 12.6679 53.4497 13.2443V13.2442Z" fill="#EA9127"/>
<path d="M53.4497 13.2442C53.5602 14.1838 53.6249 15.2007 53.6162 16.2855C53.5845 20.2749 52.5744 23.5829 51.5763 25.9392C51.5718 25.7516 51.4811 23.5744 49.5722 22.3325C47.7512 21.1478 45.8268 21.8233 45.6211 21.8996C46.389 21.0401 47.3895 19.7144 48.1505 17.8968C49.2632 15.2398 49.3101 12.8541 49.2338 11.5151C50.6392 12.0915 52.0444 12.6679 53.4497 13.2443V13.2442Z" stroke="white" stroke-width="4" stroke-linejoin="round" mask="url(#path-10-outside-10_1_267)"/>
<mask id="path-11-outside-11_1_267" maskUnits="userSpaceOnUse" x="24.1205" y="24.2646" width="30" height="16" fill="black">
<rect fill="white" x="24.1205" y="24.2646" width="30" height="16"/>
<path d="M27.1205 26.2646C29.0773 29.827 31.0341 33.3893 32.991 36.9516C34.2687 37.4444 36.2224 38.0289 38.6634 38.1303C41.2386 38.2372 43.329 37.7637 44.6699 37.3489C46.8562 33.9172 49.0424 30.4855 51.2286 27.0538C50.5167 27.2463 49.5829 27.4622 48.4758 27.6209C47.5421 27.7547 46.3983 27.8602 44.8971 27.8534C41.9108 27.84 41.755 27.4014 38.972 27.3087C36.4671 27.2255 36.4546 27.576 33.6091 27.4365C31.9145 27.3534 30.6382 27.1663 29.4939 26.9167C28.5264 26.7056 27.7201 26.4644 27.1206 26.2647L27.1205 26.2646Z"/>
</mask>
<path d="M27.1205 26.2646C29.0773 29.827 31.0341 33.3893 32.991 36.9516C34.2687 37.4444 36.2224 38.0289 38.6634 38.1303C41.2386 38.2372 43.329 37.7637 44.6699 37.3489C46.8562 33.9172 49.0424 30.4855 51.2286 27.0538C50.5167 27.2463 49.5829 27.4622 48.4758 27.6209C47.5421 27.7547 46.3983 27.8602 44.8971 27.8534C41.9108 27.84 41.755 27.4014 38.972 27.3087C36.4671 27.2255 36.4546 27.576 33.6091 27.4365C31.9145 27.3534 30.6382 27.1663 29.4939 26.9167C28.5264 26.7056 27.7201 26.4644 27.1206 26.2647L27.1205 26.2646Z" fill="#F6D365"/>
<path d="M27.1205 26.2646C29.0773 29.827 31.0341 33.3893 32.991 36.9516C34.2687 37.4444 36.2224 38.0289 38.6634 38.1303C41.2386 38.2372 43.329 37.7637 44.6699 37.3489C46.8562 33.9172 49.0424 30.4855 51.2286 27.0538C50.5167 27.2463 49.5829 27.4622 48.4758 27.6209C47.5421 27.7547 46.3983 27.8602 44.8971 27.8534C41.9108 27.84 41.755 27.4014 38.972 27.3087C36.4671 27.2255 36.4546 27.576 33.6091 27.4365C31.9145 27.3534 30.6382 27.1663 29.4939 26.9167C28.5264 26.7056 27.7201 26.4644 27.1206 26.2647L27.1205 26.2646Z" stroke="white" stroke-width="4" stroke-linejoin="round" mask="url(#path-11-outside-11_1_267)"/>
<mask id="path-12-outside-12_1_267" maskUnits="userSpaceOnUse" x="27.6761" y="37.1139" width="13" height="27" fill="black">
<rect fill="white" x="27.6761" y="37.1139" width="13" height="27"/>
<path d="M32.9539 39.1139C34.6004 41.0922 36.2471 43.0705 37.8937 45.0487C36.3671 47.2112 34.6899 49.9414 33.1754 53.2411C31.7825 56.2757 30.8483 59.0922 30.2097 61.5005C29.5441 57.3318 29.2006 51.3098 31.0374 44.5423C31.5821 42.5355 32.2476 40.7242 32.9538 39.114L32.9539 39.1139Z"/>
</mask>
<path d="M32.9539 39.1139C34.6004 41.0922 36.2471 43.0705 37.8937 45.0487C36.3671 47.2112 34.6899 49.9414 33.1754 53.2411C31.7825 56.2757 30.8483 59.0922 30.2097 61.5005C29.5441 57.3318 29.2006 51.3098 31.0374 44.5423C31.5821 42.5355 32.2476 40.7242 32.9538 39.114L32.9539 39.1139Z" fill="#F6D365"/>
<path d="M32.9539 39.1139C34.6004 41.0922 36.2471 43.0705 37.8937 45.0487C36.3671 47.2112 34.6899 49.9414 33.1754 53.2411C31.7825 56.2757 30.8483 59.0922 30.2097 61.5005C29.5441 57.3318 29.2006 51.3098 31.0374 44.5423C31.5821 42.5355 32.2476 40.7242 32.9538 39.114L32.9539 39.1139Z" stroke="white" stroke-width="4" stroke-linejoin="round" mask="url(#path-12-outside-12_1_267)"/>
<mask id="path-13-outside-13_1_267" maskUnits="userSpaceOnUse" x="29.6918" y="38.3918" width="19" height="26" fill="black">
<rect fill="white" x="29.6918" y="38.3918" width="19" height="26"/>
<path d="M43.453 40.3918C41.3674 42.5567 38.8835 45.5424 36.6106 49.4301C33.9961 53.9018 32.5367 58.0685 31.6918 61.2323C34.7949 61.7502 37.343 61.6922 39.0918 61.5387C41.9716 61.2861 43.1499 60.734 44 60.1261C44.3614 59.8677 45.4742 59.0719 46.1016 57.7699C47.4503 54.9707 45.3361 52.3623 44.1602 47.0144C43.8245 45.4878 43.4551 43.2369 43.4529 40.3918H43.453Z"/>
</mask>
<path d="M43.453 40.3918C41.3674 42.5567 38.8835 45.5424 36.6106 49.4301C33.9961 53.9018 32.5367 58.0685 31.6918 61.2323C34.7949 61.7502 37.343 61.6922 39.0918 61.5387C41.9716 61.2861 43.1499 60.734 44 60.1261C44.3614 59.8677 45.4742 59.0719 46.1016 57.7699C47.4503 54.9707 45.3361 52.3623 44.1602 47.0144C43.8245 45.4878 43.4551 43.2369 43.4529 40.3918H43.453Z" fill="#903518"/>
<path d="M43.453 40.3918C41.3674 42.5567 38.8835 45.5424 36.6106 49.4301C33.9961 53.9018 32.5367 58.0685 31.6918 61.2323C34.7949 61.7502 37.343 61.6922 39.0918 61.5387C41.9716 61.2861 43.1499 60.734 44 60.1261C44.3614 59.8677 45.4742 59.0719 46.1016 57.7699C47.4503 54.9707 45.3361 52.3623 44.1602 47.0144C43.8245 45.4878 43.4551 43.2369 43.4529 40.3918H43.453Z" stroke="white" stroke-width="4" stroke-linejoin="round" mask="url(#path-13-outside-13_1_267)"/>
<mask id="path-14-outside-14_1_267" maskUnits="userSpaceOnUse" x="27.7024" y="20.2021" width="13" height="9" fill="black">
<rect fill="white" x="27.7024" y="20.2021" width="13" height="9"/>
<path d="M37.8673 26.5657C37.1491 26.0873 36.172 25.4619 34.979 24.7723C34.3396 24.4028 33.8371 24.1298 33.2891 23.8325C32.48 23.3938 31.4222 22.8337 30.1601 22.2021C29.9855 22.5518 29.6977 23.2454 29.7024 24.1602C29.7065 24.9627 29.9338 25.5829 30.0904 25.9278C31.0653 25.8914 32.1242 25.8953 33.2547 25.9622C34.9688 26.0638 36.516 26.2906 37.8674 26.5658L37.8673 26.5657Z"/>
</mask>
<path d="M37.8673 26.5657C37.1491 26.0873 36.172 25.4619 34.979 24.7723C34.3396 24.4028 33.8371 24.1298 33.2891 23.8325C32.48 23.3938 31.4222 22.8337 30.1601 22.2021C29.9855 22.5518 29.6977 23.2454 29.7024 24.1602C29.7065 24.9627 29.9338 25.5829 30.0904 25.9278C31.0653 25.8914 32.1242 25.8953 33.2547 25.9622C34.9688 26.0638 36.516 26.2906 37.8674 26.5658L37.8673 26.5657Z" fill="#532322"/>
<path d="M37.8673 26.5657C37.1491 26.0873 36.172 25.4619 34.979 24.7723C34.3396 24.4028 33.8371 24.1298 33.2891 23.8325C32.48 23.3938 31.4222 22.8337 30.1601 22.2021C29.9855 22.5518 29.6977 23.2454 29.7024 24.1602C29.7065 24.9627 29.9338 25.5829 30.0904 25.9278C31.0653 25.8914 32.1242 25.8953 33.2547 25.9622C34.9688 26.0638 36.516 26.2906 37.8674 26.5658L37.8673 26.5657Z" stroke="white" stroke-width="4" stroke-linejoin="round" mask="url(#path-14-outside-14_1_267)"/>
<mask id="path-15-outside-15_1_267" maskUnits="userSpaceOnUse" x="39.295" y="19.8673" width="12" height="9" fill="black">
<rect fill="white" x="39.295" y="19.8673" width="12" height="9"/>
<path d="M40.295 26.6506C41.6676 25.8689 43.1733 25.0828 44.8116 24.3247C45.9918 23.7786 47.1363 23.2955 48.235 22.8673C48.3861 23.2284 48.643 23.9813 48.5392 24.9404C48.458 25.6895 48.1905 26.2524 48.0063 26.5733C47.0335 26.4625 45.9668 26.3871 44.8184 26.3741C43.1406 26.355 41.6211 26.4727 40.295 26.6506Z"/>
</mask>
<path d="M40.295 26.6506C41.6676 25.8689 43.1733 25.0828 44.8116 24.3247C45.9918 23.7786 47.1363 23.2955 48.235 22.8673C48.3861 23.2284 48.643 23.9813 48.5392 24.9404C48.458 25.6895 48.1905 26.2524 48.0063 26.5733C47.0335 26.4625 45.9668 26.3871 44.8184 26.3741C43.1406 26.355 41.6211 26.4727 40.295 26.6506Z" fill="#532322"/>
<path d="M40.295 26.6506C41.6676 25.8689 43.1733 25.0828 44.8116 24.3247C45.9918 23.7786 47.1363 23.2955 48.235 22.8673C48.3861 23.2284 48.643 23.9813 48.5392 24.9404C48.458 25.6895 48.1905 26.2524 48.0063 26.5733C47.0335 26.4625 45.9668 26.3871 44.8184 26.3741C43.1406 26.355 41.6211 26.4727 40.295 26.6506Z" stroke="white" stroke-width="4" stroke-linejoin="round" mask="url(#path-15-outside-15_1_267)"/>
<mask id="path-16-outside-16_1_267" maskUnits="userSpaceOnUse" x="32.5002" y="36.817" width="13" height="10" fill="black">
<rect fill="white" x="32.5002" y="36.817" width="13" height="10"/>
<path d="M34.5002 38.817C35.607 39.1003 37.0302 39.3617 38.6967 39.4188C40.3832 39.4765 41.8358 39.3084 42.967 39.0973C41.4918 40.6714 40.0166 42.2455 38.5414 43.8194C37.1943 42.152 35.8472 40.4845 34.5002 38.817Z"/>
</mask>
<path d="M34.5002 38.817C35.607 39.1003 37.0302 39.3617 38.6967 39.4188C40.3832 39.4765 41.8358 39.3084 42.967 39.0973C41.4918 40.6714 40.0166 42.2455 38.5414 43.8194C37.1943 42.152 35.8472 40.4845 34.5002 38.817Z" fill="#532322"/>
<path d="M34.5002 38.817C35.607 39.1003 37.0302 39.3617 38.6967 39.4188C40.3832 39.4765 41.8358 39.3084 42.967 39.0973C41.4918 40.6714 40.0166 42.2455 38.5414 43.8194C37.1943 42.152 35.8472 40.4845 34.5002 38.817Z" stroke="white" stroke-width="4" stroke-linejoin="round" mask="url(#path-16-outside-16_1_267)"/>
<mask id="path-17-outside-17_1_267" maskUnits="userSpaceOnUse" x="38.2643" y="20.8591" width="13" height="8" fill="black">
<rect fill="white" x="38.2643" y="20.8591" width="13" height="8"/>
<path d="M40.2643 26.6569C41.015 26.2314 42.0347 25.6779 43.2742 25.076C43.9386 24.7533 44.4594 24.5172 45.0273 24.2602C45.8658 23.8807 46.9613 23.3983 48.2656 22.8591C48.4146 23.2204 48.6518 23.9329 48.5812 24.845C48.5194 25.6452 48.2481 26.2473 48.0672 26.58C47.0974 26.4736 46.041 26.4013 44.9086 26.3868C43.1916 26.3648 41.6321 26.4797 40.2644 26.657L40.2643 26.6569Z"/>
</mask>
<path d="M40.2643 26.6569C41.015 26.2314 42.0347 25.6779 43.2742 25.076C43.9386 24.7533 44.4594 24.5172 45.0273 24.2602C45.8658 23.8807 46.9613 23.3983 48.2656 22.8591C48.4146 23.2204 48.6518 23.9329 48.5812 24.845C48.5194 25.6452 48.2481 26.2473 48.0672 26.58C47.0974 26.4736 46.041 26.4013 44.9086 26.3868C43.1916 26.3648 41.6321 26.4797 40.2644 26.657L40.2643 26.6569Z" fill="#532322"/>
<path d="M40.2643 26.6569C41.015 26.2314 42.0347 25.6779 43.2742 25.076C43.9386 24.7533 44.4594 24.5172 45.0273 24.2602C45.8658 23.8807 46.9613 23.3983 48.2656 22.8591C48.4146 23.2204 48.6518 23.9329 48.5812 24.845C48.5194 25.6452 48.2481 26.2473 48.0672 26.58C47.0974 26.4736 46.041 26.4013 44.9086 26.3868C43.1916 26.3648 41.6321 26.4797 40.2644 26.657L40.2643 26.6569Z" stroke="white" stroke-width="4" stroke-linejoin="round" mask="url(#path-17-outside-17_1_267)"/>
<mask id="path-18-outside-18_1_267" maskUnits="userSpaceOnUse" x="23.3351" y="8.01233" width="14" height="19" fill="black">
<rect fill="white" x="23.3351" y="8.01233" width="14" height="19"/>
<path d="M26.7995 24.9527C26.0137 22.3033 25.3718 19.0382 25.3367 15.2946C25.3272 14.2873 25.3624 13.3239 25.4307 12.4087C26.8328 11.8158 28.511 11.2213 30.4414 10.7523C31.9908 10.3759 33.4255 10.1477 34.701 10.0123C34.4366 10.5811 33.9805 11.455 33.2516 12.3971C31.1421 15.1241 29.0566 15.4395 27.6909 17.0454C26.6763 18.2387 25.7956 20.4543 26.7996 24.9528L26.7995 24.9527Z"/>
</mask>
<path d="M26.7995 24.9527C26.0137 22.3033 25.3718 19.0382 25.3367 15.2946C25.3272 14.2873 25.3624 13.3239 25.4307 12.4087C26.8328 11.8158 28.511 11.2213 30.4414 10.7523C31.9908 10.3759 33.4255 10.1477 34.701 10.0123C34.4366 10.5811 33.9805 11.455 33.2516 12.3971C31.1421 15.1241 29.0566 15.4395 27.6909 17.0454C26.6763 18.2387 25.7956 20.4543 26.7996 24.9528L26.7995 24.9527Z" fill="#CC5520"/>
<path d="M26.7995 24.9527C26.0137 22.3033 25.3718 19.0382 25.3367 15.2946C25.3272 14.2873 25.3624 13.3239 25.4307 12.4087C26.8328 11.8158 28.511 11.2213 30.4414 10.7523C31.9908 10.3759 33.4255 10.1477 34.701 10.0123C34.4366 10.5811 33.9805 11.455 33.2516 12.3971C31.1421 15.1241 29.0566 15.4395 27.6909 17.0454C26.6763 18.2387 25.7956 20.4543 26.7996 24.9528L26.7995 24.9527Z" stroke="white" stroke-width="4" stroke-linejoin="round" mask="url(#path-18-outside-18_1_267)"/>
<mask id="path-19-outside-19_1_267" maskUnits="userSpaceOnUse" x="33.9308" y="7.80641" width="17" height="14" fill="black">
<rect fill="white" x="33.9308" y="7.80641" width="17" height="14"/>
<path d="M45.7792 19.494C44.5646 19.2188 42.4928 18.574 40.4566 16.942C37.2903 14.4045 36.251 11.1158 35.9308 9.89733C37.5711 9.77695 39.5286 9.75325 41.7203 9.96845C44.1334 10.2054 46.2201 10.6721 47.9126 11.1667C48.0121 12.0458 48.0471 13.2045 47.8233 14.5315C47.4327 16.8477 46.4452 18.5404 45.7792 19.4939V19.494Z"/>
</mask>
<path d="M45.7792 19.494C44.5646 19.2188 42.4928 18.574 40.4566 16.942C37.2903 14.4045 36.251 11.1158 35.9308 9.89733C37.5711 9.77695 39.5286 9.75325 41.7203 9.96845C44.1334 10.2054 46.2201 10.6721 47.9126 11.1667C48.0121 12.0458 48.0471 13.2045 47.8233 14.5315C47.4327 16.8477 46.4452 18.5404 45.7792 19.4939V19.494Z" fill="#CC5520"/>
<path d="M45.7792 19.494C44.5646 19.2188 42.4928 18.574 40.4566 16.942C37.2903 14.4045 36.251 11.1158 35.9308 9.89733C37.5711 9.77695 39.5286 9.75325 41.7203 9.96845C44.1334 10.2054 46.2201 10.6721 47.9126 11.1667C48.0121 12.0458 48.0471 13.2045 47.8233 14.5315C47.4327 16.8477 46.4452 18.5404 45.7792 19.4939V19.494Z" stroke="white" stroke-width="4" stroke-linejoin="round" mask="url(#path-19-outside-19_1_267)"/>
<mask id="path-20-outside-20_1_267" maskUnits="userSpaceOnUse" x="47.0077" y="8.51508" width="9" height="20" fill="black">
<rect fill="white" x="47.0077" y="8.51508" width="9" height="20"/>
<path d="M49.2331 11.5151C50.6384 12.0915 52.0437 12.6679 53.449 13.2443C53.6119 14.664 53.6868 16.3864 53.5107 18.3274C53.22 21.5312 52.3548 24.1255 51.5755 25.9393C51.8099 25.3054 53.6183 20.1868 50.8175 16.6355C50.4162 16.1267 49.8398 15.548 49.0077 15.0297C49.0801 14.6433 49.1418 14.2275 49.1858 13.7846C49.2686 12.949 49.2712 12.1854 49.2332 11.5151L49.2331 11.5151Z"/>
</mask>
<path d="M49.2331 11.5151C50.6384 12.0915 52.0437 12.6679 53.449 13.2443C53.6119 14.664 53.6868 16.3864 53.5107 18.3274C53.22 21.5312 52.3548 24.1255 51.5755 25.9393C51.8099 25.3054 53.6183 20.1868 50.8175 16.6355C50.4162 16.1267 49.8398 15.548 49.0077 15.0297C49.0801 14.6433 49.1418 14.2275 49.1858 13.7846C49.2686 12.949 49.2712 12.1854 49.2332 11.5151L49.2331 11.5151Z" fill="#CC5520"/>
<path d="M49.2331 11.5151C50.6384 12.0915 52.0437 12.6679 53.449 13.2443C53.6119 14.664 53.6868 16.3864 53.5107 18.3274C53.22 21.5312 52.3548 24.1255 51.5755 25.9393C51.8099 25.3054 53.6183 20.1868 50.8175 16.6355C50.4162 16.1267 49.8398 15.548 49.0077 15.0297C49.0801 14.6433 49.1418 14.2275 49.1858 13.7846C49.2686 12.949 49.2712 12.1854 49.2332 11.5151L49.2331 11.5151Z" stroke="white" stroke-width="4" stroke-linejoin="round" mask="url(#path-20-outside-20_1_267)"/>
<mask id="path-21-outside-21_1_267" maskUnits="userSpaceOnUse" x="44.1549" y="0.892517" width="12" height="14" fill="black">
<rect fill="white" x="44.1549" y="0.892517" width="12" height="14"/>
<path d="M46.1549 9.56314C46.6019 8.5958 47.3328 7.29281 48.5122 5.97573C49.9204 4.40321 51.3986 3.44625 52.4233 2.89252C52.8576 3.81444 53.347 5.11256 53.5935 6.72281C53.9338 8.94669 53.6634 10.8012 53.3952 11.9692C53.2345 10.3915 52.2197 9.03427 50.7719 8.46722C49.1836 7.84526 47.3418 8.2788 46.1549 9.56314Z"/>
</mask>
<path d="M46.1549 9.56314C46.6019 8.5958 47.3328 7.29281 48.5122 5.97573C49.9204 4.40321 51.3986 3.44625 52.4233 2.89252C52.8576 3.81444 53.347 5.11256 53.5935 6.72281C53.9338 8.94669 53.6634 10.8012 53.3952 11.9692C53.2345 10.3915 52.2197 9.03427 50.7719 8.46722C49.1836 7.84526 47.3418 8.2788 46.1549 9.56314Z" fill="#CC5520"/>
<path d="M46.1549 9.56314C46.6019 8.5958 47.3328 7.29281 48.5122 5.97573C49.9204 4.40321 51.3986 3.44625 52.4233 2.89252C52.8576 3.81444 53.347 5.11256 53.5935 6.72281C53.9338 8.94669 53.6634 10.8012 53.3952 11.9692C53.2345 10.3915 52.2197 9.03427 50.7719 8.46722C49.1836 7.84526 47.3418 8.2788 46.1549 9.56314Z" stroke="white" stroke-width="4" stroke-linejoin="round" mask="url(#path-21-outside-21_1_267)"/>
<mask id="path-22-outside-22_1_267" maskUnits="userSpaceOnUse" x="23.3699" y="0" width="12" height="13" fill="black">
<rect fill="white" x="23.3699" width="12" height="13"/>
<path d="M25.5324 10.9852C25.3736 9.94555 25.2658 8.46734 25.5292 6.73152C25.8486 4.62609 26.5823 3.01142 27.1423 2C28.0247 2.56661 29.1536 3.42356 30.2503 4.67261C31.6939 6.31688 32.4877 7.96416 32.924 9.09436C31.8266 7.63403 29.9383 7.03596 28.2772 7.59802C26.8159 8.09249 25.7502 9.4104 25.5325 10.9852H25.5324Z"/>
</mask>
<path d="M25.5324 10.9852C25.3736 9.94555 25.2658 8.46734 25.5292 6.73152C25.8486 4.62609 26.5823 3.01142 27.1423 2C28.0247 2.56661 29.1536 3.42356 30.2503 4.67261C31.6939 6.31688 32.4877 7.96416 32.924 9.09436C31.8266 7.63403 29.9383 7.03596 28.2772 7.59802C26.8159 8.09249 25.7502 9.4104 25.5325 10.9852H25.5324Z" fill="#CC5520"/>
<path d="M25.5324 10.9852C25.3736 9.94555 25.2658 8.46734 25.5292 6.73152C25.8486 4.62609 26.5823 3.01142 27.1423 2C28.0247 2.56661 29.1536 3.42356 30.2503 4.67261C31.6939 6.31688 32.4877 7.96416 32.924 9.09436C31.8266 7.63403 29.9383 7.03596 28.2772 7.59802C26.8159 8.09249 25.7502 9.4104 25.5325 10.9852H25.5324Z" stroke="white" stroke-width="4" stroke-linejoin="round" mask="url(#path-22-outside-22_1_267)"/>
<mask id="path-23-outside-23_1_267" maskUnits="userSpaceOnUse" x="28.6918" y="44.5031" width="19" height="19" fill="black">
<rect fill="white" x="28.6918" y="44.5031" width="19" height="19"/>
<path d="M36.3159 52.563C33.5027 55.9155 32.2571 59.28 31.6918 61.2321C33.1928 58.566 37.4346 51.8548 43.9642 51.2671C44.4175 51.2263 44.8885 51.2144 45.3771 51.2375C45.0572 50.3391 44.7507 49.3637 44.4763 48.3146C44.3132 47.6913 44.1732 47.0865 44.0527 46.5031C42.2282 47.3985 39.13 49.2094 36.3159 52.563V52.563Z"/>
</mask>
<path d="M36.3159 52.563C33.5027 55.9155 32.2571 59.28 31.6918 61.2321C33.1928 58.566 37.4346 51.8548 43.9642 51.2671C44.4175 51.2263 44.8885 51.2144 45.3771 51.2375C45.0572 50.3391 44.7507 49.3637 44.4763 48.3146C44.3132 47.6913 44.1732 47.0865 44.0527 46.5031C42.2282 47.3985 39.13 49.2094 36.3159 52.563V52.563Z" fill="#CC5520"/>
<path d="M36.3159 52.563C33.5027 55.9155 32.2571 59.28 31.6918 61.2321C33.1928 58.566 37.4346 51.8548 43.9642 51.2671C44.4175 51.2263 44.8885 51.2144 45.3771 51.2375C45.0572 50.3391 44.7507 49.3637 44.4763 48.3146C44.3132 47.6913 44.1732 47.0865 44.0527 46.5031C42.2282 47.3985 39.13 49.2094 36.3159 52.563V52.563Z" stroke="white" stroke-width="4" stroke-linejoin="round" mask="url(#path-23-outside-23_1_267)"/>
<mask id="path-24-outside-24_1_267" maskUnits="userSpaceOnUse" x="27.6855" y="42.8479" width="8" height="21" fill="black">
<rect fill="white" x="27.6855" y="42.8479" width="8" height="21"/>
<path d="M30.7075 45.848C29.9562 49.2062 29.4458 53.3555 29.8009 58.0564C29.8921 59.2628 30.0332 60.4122 30.2097 61.5008C30.4902 60.4931 30.8095 59.4465 31.1734 58.367C31.6699 56.8943 32.1965 55.5178 32.7326 54.2404C32.0576 51.4429 31.3826 48.6453 30.7075 45.8479V45.848Z"/>
</mask>
<path d="M30.7075 45.848C29.9562 49.2062 29.4458 53.3555 29.8009 58.0564C29.8921 59.2628 30.0332 60.4122 30.2097 61.5008C30.4902 60.4931 30.8095 59.4465 31.1734 58.367C31.6699 56.8943 32.1965 55.5178 32.7326 54.2404C32.0576 51.4429 31.3826 48.6453 30.7075 45.8479V45.848Z" fill="#CC5520"/>
<path d="M30.7075 45.848C29.9562 49.2062 29.4458 53.3555 29.8009 58.0564C29.8921 59.2628 30.0332 60.4122 30.2097 61.5008C30.4902 60.4931 30.8095 59.4465 31.1734 58.367C31.6699 56.8943 32.1965 55.5178 32.7326 54.2404C32.0576 51.4429 31.3826 48.6453 30.7075 45.8479V45.848Z" stroke="white" stroke-width="4" stroke-linejoin="round" mask="url(#path-24-outside-24_1_267)"/>
<mask id="path-25-outside-25_1_267" maskUnits="userSpaceOnUse" x="24.1205" y="23.2646" width="30" height="17" fill="black">
<rect fill="white" x="24.1205" y="23.2646" width="30" height="17"/>
<path d="M32.991 36.9516C31.0342 33.3893 29.0774 29.827 27.1205 26.2646C28.1177 28.0971 29.2767 29.1133 30.1007 29.6867C35.2174 33.2473 42.84 30.4723 46.7952 29.0277C48.7896 28.2993 50.3284 27.5344 51.2197 27.0631C49.0364 30.4917 46.8531 33.9203 44.6699 37.3489C43.3556 37.7555 41.3328 38.2147 38.843 38.1365C36.3069 38.0568 34.2854 37.4508 32.9909 36.9516H32.991Z"/>
</mask>
<path d="M32.991 36.9516C31.0342 33.3893 29.0774 29.827 27.1205 26.2646C28.1177 28.0971 29.2767 29.1133 30.1007 29.6867C35.2174 33.2473 42.84 30.4723 46.7952 29.0277C48.7896 28.2993 50.3284 27.5344 51.2197 27.0631C49.0364 30.4917 46.8531 33.9203 44.6699 37.3489C43.3556 37.7555 41.3328 38.2147 38.843 38.1365C36.3069 38.0568 34.2854 37.4508 32.9909 36.9516H32.991Z" fill="#EA9127"/>
<path d="M32.991 36.9516C31.0342 33.3893 29.0774 29.827 27.1205 26.2646C28.1177 28.0971 29.2767 29.1133 30.1007 29.6867C35.2174 33.2473 42.84 30.4723 46.7952 29.0277C48.7896 28.2993 50.3284 27.5344 51.2197 27.0631C49.0364 30.4917 46.8531 33.9203 44.6699 37.3489C43.3556 37.7555 41.3328 38.2147 38.843 38.1365C36.3069 38.0568 34.2854 37.4508 32.9909 36.9516H32.991Z" stroke="white" stroke-width="4" stroke-linejoin="round" mask="url(#path-25-outside-25_1_267)"/>
<mask id="path-26-outside-26_1_267" maskUnits="userSpaceOnUse" x="28.7885" y="7.89777" width="19" height="17" fill="black">
<rect fill="white" x="28.7885" y="7.89777" width="19" height="17"/>
<path d="M35.9311 9.89783C36.1508 10.5986 36.4247 11.8117 36.2174 13.291C36.1485 13.7829 36.0178 14.9104 35.2684 16.0462C34.6813 16.9359 34.2277 17.2221 33.1589 18.2697C32.5417 18.8746 31.6984 19.7689 30.7885 20.9785C31.815 21.3758 33.0168 21.7356 34.379 21.9595C38.9927 22.7179 42.8393 21.4897 44.9255 20.6179C45.2102 20.2434 45.4948 19.8689 45.7796 19.4944C43.8134 18.4033 41.1949 16.629 38.7518 13.8257C37.5565 12.4543 36.6371 11.1049 35.9312 9.89777L35.9311 9.89783Z"/>
</mask>
<path d="M35.9311 9.89783C36.1508 10.5986 36.4247 11.8117 36.2174 13.291C36.1485 13.7829 36.0178 14.9104 35.2684 16.0462C34.6813 16.9359 34.2277 17.2221 33.1589 18.2697C32.5417 18.8746 31.6984 19.7689 30.7885 20.9785C31.815 21.3758 33.0168 21.7356 34.379 21.9595C38.9927 22.7179 42.8393 21.4897 44.9255 20.6179C45.2102 20.2434 45.4948 19.8689 45.7796 19.4944C43.8134 18.4033 41.1949 16.629 38.7518 13.8257C37.5565 12.4543 36.6371 11.1049 35.9312 9.89777L35.9311 9.89783Z" fill="#EA9127"/>
<path d="M35.9311 9.89783C36.1508 10.5986 36.4247 11.8117 36.2174 13.291C36.1485 13.7829 36.0178 14.9104 35.2684 16.0462C34.6813 16.9359 34.2277 17.2221 33.1589 18.2697C32.5417 18.8746 31.6984 19.7689 30.7885 20.9785C31.815 21.3758 33.0168 21.7356 34.379 21.9595C38.9927 22.7179 42.8393 21.4897 44.9255 20.6179C45.2102 20.2434 45.4948 19.8689 45.7796 19.4944C43.8134 18.4033 41.1949 16.629 38.7518 13.8257C37.5565 12.4543 36.6371 11.1049 35.9312 9.89777L35.9311 9.89783Z" stroke="white" stroke-width="4" stroke-linejoin="round" mask="url(#path-26-outside-26_1_267)"/>
<mask id="path-27-outside-27_1_267" maskUnits="userSpaceOnUse" x="28.694" y="42.5261" width="12" height="18" fill="black">
<rect fill="white" x="28.694" y="42.5261" width="12" height="18"/>
<path d="M36.2389 45.622C33.9348 47.0706 31.1694 46.0296 30.7073 45.8477C30.6882 46.88 30.6892 47.9399 30.7136 49.0262C30.7833 52.1287 31.0347 55.0329 31.3975 57.7139C32.3679 54.912 33.7322 51.7541 35.6778 48.4676C36.4051 47.2391 37.1499 46.1005 37.8934 45.0488C37.7485 44.8746 37.6035 44.7003 37.4585 44.5261C37.1513 44.9101 36.7529 45.2988 36.2389 45.622Z"/>
</mask>
<path d="M36.2389 45.622C33.9348 47.0706 31.1694 46.0296 30.7073 45.8477C30.6882 46.88 30.6892 47.9399 30.7136 49.0262C30.7833 52.1287 31.0347 55.0329 31.3975 57.7139C32.3679 54.912 33.7322 51.7541 35.6778 48.4676C36.4051 47.2391 37.1499 46.1005 37.8934 45.0488C37.7485 44.8746 37.6035 44.7003 37.4585 44.5261C37.1513 44.9101 36.7529 45.2988 36.2389 45.622Z" fill="#EA9127"/>
<path d="M36.2389 45.622C33.9348 47.0706 31.1694 46.0296 30.7073 45.8477C30.6882 46.88 30.6892 47.9399 30.7136 49.0262C30.7833 52.1287 31.0347 55.0329 31.3975 57.7139C32.3679 54.912 33.7322 51.7541 35.6778 48.4676C36.4051 47.2391 37.1499 46.1005 37.8934 45.0488C37.7485 44.8746 37.6035 44.7003 37.4585 44.5261C37.1513 44.9101 36.7529 45.2988 36.2389 45.622Z" stroke="white" stroke-width="4" stroke-linejoin="round" mask="url(#path-27-outside-27_1_267)"/>
<mask id="path-28-outside-28_1_267" maskUnits="userSpaceOnUse" x="29.6918" y="38.3918" width="17" height="25" fill="black">
<rect fill="white" x="29.6918" y="38.3918" width="17" height="25"/>
<path d="M31.6918 61.2323C32.3323 59.1918 33.6842 55.7958 36.5778 52.4235C39.2834 49.2705 42.1977 47.4654 44.0527 46.5034C43.8174 45.317 43.6255 43.9916 43.5263 42.5446C43.4748 41.7932 43.4527 41.0744 43.453 40.3918C41.6209 42.2939 39.6017 44.703 37.689 47.6739C34.419 52.7528 32.6689 57.5966 31.6918 61.2322V61.2323Z"/>
</mask>
<path d="M31.6918 61.2323C32.3323 59.1918 33.6842 55.7958 36.5778 52.4235C39.2834 49.2705 42.1977 47.4654 44.0527 46.5034C43.8174 45.317 43.6255 43.9916 43.5263 42.5446C43.4748 41.7932 43.4527 41.0744 43.453 40.3918C41.6209 42.2939 39.6017 44.703 37.689 47.6739C34.419 52.7528 32.6689 57.5966 31.6918 61.2322V61.2323Z" fill="#EA9127"/>
<path d="M31.6918 61.2323C32.3323 59.1918 33.6842 55.7958 36.5778 52.4235C39.2834 49.2705 42.1977 47.4654 44.0527 46.5034C43.8174 45.317 43.6255 43.9916 43.5263 42.5446C43.4748 41.7932 43.4527 41.0744 43.453 40.3918C41.6209 42.2939 39.6017 44.703 37.689 47.6739C34.419 52.7528 32.6689 57.5966 31.6918 61.2322V61.2323Z" stroke="white" stroke-width="4" stroke-linejoin="round" mask="url(#path-28-outside-28_1_267)"/>
<mask id="path-29-outside-29_1_267" maskUnits="userSpaceOnUse" x="22.4672" y="0" width="11" height="10" fill="black">
<rect fill="white" x="22.4672" width="11" height="10"/>
<path d="M27.1609 2C26.8469 2.53976 26.5229 3.18523 26.2386 3.9343C25.7773 5.14958 25.5652 6.25685 25.4672 7.13482C25.5143 6.87496 25.7743 5.58806 26.8881 4.92785C28.1582 4.17506 30.0371 4.53461 31.2801 5.95035C30.6743 5.10858 29.8482 4.13349 28.7425 3.1878C28.1974 2.72152 27.6627 2.32937 27.1609 2H27.1609Z"/>
</mask>
<path d="M27.1609 2C26.8469 2.53976 26.5229 3.18523 26.2386 3.9343C25.7773 5.14958 25.5652 6.25685 25.4672 7.13482C25.5143 6.87496 25.7743 5.58806 26.8881 4.92785C28.1582 4.17506 30.0371 4.53461 31.2801 5.95035C30.6743 5.10858 29.8482 4.13349 28.7425 3.1878C28.1974 2.72152 27.6627 2.32937 27.1609 2H27.1609Z" fill="#903518"/>
<path d="M27.1609 2C26.8469 2.53976 26.5229 3.18523 26.2386 3.9343C25.7773 5.14958 25.5652 6.25685 25.4672 7.13482C25.5143 6.87496 25.7743 5.58806 26.8881 4.92785C28.1582 4.17506 30.0371 4.53461 31.2801 5.95035C30.6743 5.10858 29.8482 4.13349 28.7425 3.1878C28.1974 2.72152 27.6627 2.32937 27.1609 2H27.1609Z" stroke="white" stroke-width="4" stroke-linejoin="round" mask="url(#path-29-outside-29_1_267)"/>
<mask id="path-30-outside-30_1_267" maskUnits="userSpaceOnUse" x="46.0485" y="0.892517" width="10" height="10" fill="black">
<rect fill="white" x="46.0485" y="0.892517" width="10" height="10"/>
<path d="M52.4231 2.89252C52.7059 3.44368 52.9951 4.11228 53.2305 4.89217C53.6177 6.17549 53.7269 7.32209 53.7386 8.19429C53.7194 7.9675 53.5785 6.56296 52.4448 5.79173C51.2252 4.96206 49.345 5.19693 48.0485 6.51344C48.6631 5.75752 49.5086 4.87077 50.6354 4.03085C51.2617 3.56406 51.8685 3.191 52.4232 2.89252H52.4231Z"/>
</mask>
<path d="M52.4231 2.89252C52.7059 3.44368 52.9951 4.11228 53.2305 4.89217C53.6177 6.17549 53.7269 7.32209 53.7386 8.19429C53.7194 7.9675 53.5785 6.56296 52.4448 5.79173C51.2252 4.96206 49.345 5.19693 48.0485 6.51344C48.6631 5.75752 49.5086 4.87077 50.6354 4.03085C51.2617 3.56406 51.8685 3.191 52.4232 2.89252H52.4231Z" fill="#903518"/>
<path d="M52.4231 2.89252C52.7059 3.44368 52.9951 4.11228 53.2305 4.89217C53.6177 6.17549 53.7269 7.32209 53.7386 8.19429C53.7194 7.9675 53.5785 6.56296 52.4448 5.79173C51.2252 4.96206 49.345 5.19693 48.0485 6.51344C48.6631 5.75752 49.5086 4.87077 50.6354 4.03085C51.2617 3.56406 51.8685 3.191 52.4232 2.89252H52.4231Z" stroke="white" stroke-width="4" stroke-linejoin="round" mask="url(#path-30-outside-30_1_267)"/>
<mask id="path-31-outside-31_1_267" maskUnits="userSpaceOnUse" x="29.9907" y="27.6299" width="22" height="13" fill="black">
<rect fill="white" x="29.9907" y="27.6299" width="22" height="13"/>
<path d="M44.6697 37.349C46.3082 34.776 47.9466 32.2029 49.5851 29.6299C48.1339 31.2212 45.1664 34.0311 40.5258 35.6785C37.5164 36.7469 34.8354 36.9599 32.9907 36.9517C34.3669 37.479 36.5495 38.1226 39.2838 38.1412C41.5346 38.1566 43.3878 37.7432 44.6697 37.349Z"/>
</mask>
<path d="M44.6697 37.349C46.3082 34.776 47.9466 32.2029 49.5851 29.6299C48.1339 31.2212 45.1664 34.0311 40.5258 35.6785C37.5164 36.7469 34.8354 36.9599 32.9907 36.9517C34.3669 37.479 36.5495 38.1226 39.2838 38.1412C41.5346 38.1566 43.3878 37.7432 44.6697 37.349Z" fill="#CC5520"/>
<path d="M44.6697 37.349C46.3082 34.776 47.9466 32.2029 49.5851 29.6299C48.1339 31.2212 45.1664 34.0311 40.5258 35.6785C37.5164 36.7469 34.8354 36.9599 32.9907 36.9517C34.3669 37.479 36.5495 38.1226 39.2838 38.1412C41.5346 38.1566 43.3878 37.7432 44.6697 37.349Z" stroke="white" stroke-width="4" stroke-linejoin="round" mask="url(#path-31-outside-31_1_267)"/>
<path d="M8.35945 9.56909C6.59986 12.1118 3.9967 16.5708 2.73363 22.6931C1.67729 27.8132 1.95682 32.1646 2.36787 35.0127C5.12722 37.026 7.37782 37.4325 8.89281 37.4481C12.4268 37.4843 16.4341 35.4385 20.2663 35.3458C21.0589 35.3267 21.8755 35.3512 21.8755 35.3512C23.5415 35.4013 24.9297 35.5807 25.9358 35.7491C25.0509 35.4993 11.0552 31.3178 8.16892 19.2056C7.2641 15.4086 7.72769 11.9937 8.35945 9.56909Z" fill="#EA9127"/>
<path d="M2.65591 36.7525C3.29011 39.7599 4.70835 44.3804 8.15168 48.9453C15.4011 58.5567 26.1306 60.636 28.9572 61.0933C28.4839 58.3965 28.1049 54.5372 28.6484 49.9633C29.1945 45.3669 30.4773 41.6888 31.5753 39.1728C26.6193 36.6017 22.7335 36.3319 20.0594 36.587C15.0303 37.0669 11.4057 39.678 6.10969 38.2394C4.57369 37.8222 3.39531 37.1996 2.65598 36.7525L2.65591 36.7525Z" fill="#EA9127"/>
<path d="M10.0114 51.1735C12.3331 51.099 15.6041 50.7021 19.2017 49.2497C26.1106 46.4609 29.9933 41.4874 31.5753 39.1731C31.0005 40.4873 30.4627 41.9203 29.9995 43.4716C27.9386 50.3738 28.2439 56.6405 28.9572 61.0936C24.3494 60.287 17.9847 58.362 12.3653 53.4604C11.5057 52.7105 10.7234 51.9434 10.0114 51.1735Z" fill="#903518"/>
<path d="M8.35994 9.56909C7.02313 11.4997 5.51064 14.0864 4.29279 17.321C2.47266 22.1553 2.04822 26.4776 2.00388 29.4381C2.7452 28.6863 3.49254 28.2133 4.14954 27.9067C9.34727 25.4805 15.5834 30.335 16.0528 30.7105C14.6177 29.6599 9.25886 25.4761 7.93723 18.0836C7.29176 14.4733 7.84722 11.4295 8.36 9.56916L8.35994 9.56909Z" fill="#F6D365"/>
<path d="M2.65598 36.7525C4.13233 38.4265 7.3176 41.5404 12.3375 43.0174C22.1932 45.917 30.499 39.9703 31.5752 39.1728C30.2116 41.2157 27.1429 45.2156 21.7089 48.0798C16.8779 50.6264 12.4195 51.0937 10.0113 51.1732C8.62712 49.66 6.90776 47.4735 5.4104 44.5656C3.86203 41.5587 3.07619 38.8004 2.65591 36.7525H2.65598Z" fill="#CC5520"/>
<path d="M27.142 2C26.5706 3.03263 25.82 4.69042 25.511 6.85241C25.2716 8.52712 25.3753 9.95837 25.532 10.9852C26.5904 10.602 27.761 10.2296 29.0371 9.89795C30.4251 9.53726 31.7292 9.27919 32.9236 9.09436C32.5396 8.09665 31.8998 6.75708 30.8264 5.37125C29.5341 3.70264 28.131 2.63541 27.1419 2L27.142 2Z" fill="#EA9127"/>
<path d="M52.4233 2.89252C51.4603 3.41197 50.0994 4.2868 48.7698 5.69537C47.4181 7.12739 46.6171 8.56184 46.1549 9.56314C47.2939 9.82332 48.5314 10.159 49.8421 10.5949C51.1457 11.0284 52.3319 11.4981 53.3953 11.9692C53.6404 10.9119 53.8891 9.2774 53.6705 7.30107C53.4574 5.37286 52.8816 3.86294 52.4234 2.89252H52.4233Z" fill="#EA9127"/>
<path d="M25.4634 12.4245C25.3027 14.1184 25.2425 16.2078 25.4819 18.5785C25.737 21.1054 26.2624 23.2583 26.7998 24.9528C28.2364 21.5531 30.0144 19.4278 31.4464 18.084C32.7525 16.8582 34.1981 15.8815 34.7904 13.9334C35.2453 12.4371 35.0001 11.015 34.7012 10.0123C33.4791 10.1391 32.1115 10.3531 30.6382 10.7047C28.6319 11.1835 26.8981 11.8056 25.4634 12.4245Z" fill="#E39334"/>
<path d="M35.9312 9.89727C36.1239 10.5441 36.3555 11.6149 36.2343 12.9323C36.1882 13.4343 36.0756 14.5433 35.4464 15.7331C34.6514 17.2365 33.8091 17.3988 31.8866 19.6162C31.3934 20.185 31.0187 20.6705 30.7885 20.9781C33.5868 22.3825 36.3849 23.7869 39.1832 25.1914C40.5378 24.4723 46.7516 20.9986 47.8346 14.5214C47.9909 13.5864 48.0618 12.4601 47.913 11.1668C46.1434 10.6498 43.9517 10.1656 41.4133 9.93962C39.3567 9.75658 37.5071 9.78176 35.9312 9.8974L35.9312 9.89727Z" fill="#F6D365"/>
<path d="M53.4497 13.2442C53.5602 14.1838 53.6249 15.2007 53.6162 16.2855C53.5845 20.2749 52.5744 23.5829 51.5763 25.9392C51.5718 25.7516 51.4811 23.5744 49.5722 22.3325C47.7512 21.1478 45.8268 21.8233 45.6211 21.8996C46.389 21.0401 47.3895 19.7144 48.1505 17.8968C49.2632 15.2398 49.3101 12.8541 49.2338 11.5151C50.6392 12.0915 52.0444 12.6679 53.4497 13.2443V13.2442Z" fill="#EA9127"/>
<path d="M27.1205 26.2646C29.0773 29.827 31.0341 33.3893 32.991 36.9516C34.2687 37.4444 36.2224 38.0289 38.6634 38.1303C41.2386 38.2372 43.329 37.7637 44.6699 37.3489C46.8562 33.9172 49.0424 30.4855 51.2286 27.0538C50.5167 27.2463 49.5829 27.4622 48.4758 27.6209C47.5421 27.7547 46.3983 27.8602 44.8971 27.8534C41.9108 27.84 41.755 27.4014 38.972 27.3087C36.4671 27.2255 36.4546 27.576 33.6091 27.4365C31.9145 27.3534 30.6382 27.1663 29.4939 26.9167C28.5264 26.7056 27.7201 26.4644 27.1206 26.2647L27.1205 26.2646Z" fill="#F6D365"/>
<path d="M32.9539 39.1139C34.6004 41.0922 36.2471 43.0705 37.8937 45.0487C36.3671 47.2112 34.6899 49.9414 33.1754 53.2411C31.7825 56.2757 30.8483 59.0922 30.2097 61.5005C29.5441 57.3318 29.2006 51.3098 31.0374 44.5423C31.5821 42.5355 32.2476 40.7242 32.9538 39.114L32.9539 39.1139Z" fill="#F6D365"/>
<path d="M43.453 40.3918C41.3674 42.5567 38.8835 45.5424 36.6106 49.4301C33.9961 53.9018 32.5367 58.0685 31.6918 61.2323C34.7949 61.7502 37.343 61.6922 39.0918 61.5387C41.9716 61.2861 43.1499 60.734 44 60.1261C44.3614 59.8677 45.4742 59.0719 46.1016 57.7699C47.4503 54.9707 45.3361 52.3623 44.1602 47.0144C43.8245 45.4878 43.4551 43.2369 43.4529 40.3918H43.453Z" fill="#903518"/>
<path d="M37.8673 26.5657C37.1491 26.0873 36.172 25.4619 34.979 24.7723C34.3396 24.4028 33.8371 24.1298 33.2891 23.8325C32.48 23.3938 31.4222 22.8337 30.1601 22.2021C29.9855 22.5518 29.6977 23.2454 29.7024 24.1602C29.7065 24.9627 29.9338 25.5829 30.0904 25.9278C31.0653 25.8914 32.1242 25.8953 33.2547 25.9622C34.9688 26.0638 36.516 26.2906 37.8674 26.5658L37.8673 26.5657Z" fill="#532322"/>
<path d="M40.295 26.6506C41.6676 25.8689 43.1733 25.0828 44.8116 24.3247C45.9918 23.7786 47.1363 23.2955 48.235 22.8673C48.3861 23.2284 48.643 23.9813 48.5392 24.9404C48.458 25.6895 48.1905 26.2524 48.0063 26.5733C47.0335 26.4625 45.9668 26.3871 44.8184 26.3741C43.1406 26.355 41.6211 26.4727 40.295 26.6506Z" fill="#532322"/>
<path d="M34.5002 38.817C35.607 39.1003 37.0302 39.3617 38.6967 39.4188C40.3832 39.4765 41.8358 39.3084 42.967 39.0973C41.4918 40.6714 40.0166 42.2455 38.5414 43.8194C37.1943 42.152 35.8472 40.4845 34.5002 38.817Z" fill="#532322"/>
<path d="M40.2643 26.6569C41.015 26.2314 42.0347 25.6779 43.2742 25.076C43.9386 24.7533 44.4594 24.5172 45.0273 24.2602C45.8658 23.8807 46.9613 23.3983 48.2656 22.8591C48.4146 23.2204 48.6518 23.9329 48.5812 24.845C48.5194 25.6452 48.2481 26.2473 48.0672 26.58C47.0974 26.4736 46.041 26.4013 44.9086 26.3868C43.1916 26.3648 41.6321 26.4797 40.2644 26.657L40.2643 26.6569Z" fill="#532322"/>
<path d="M26.7995 24.9527C26.0137 22.3033 25.3718 19.0382 25.3367 15.2946C25.3272 14.2873 25.3624 13.3239 25.4307 12.4087C26.8328 11.8158 28.511 11.2213 30.4414 10.7523C31.9908 10.3759 33.4255 10.1477 34.701 10.0123C34.4366 10.5811 33.9805 11.455 33.2516 12.3971C31.1421 15.1241 29.0566 15.4395 27.6909 17.0454C26.6763 18.2387 25.7956 20.4543 26.7996 24.9528L26.7995 24.9527Z" fill="#CC5520"/>
<path d="M45.7792 19.494C44.5646 19.2188 42.4928 18.574 40.4566 16.942C37.2903 14.4045 36.251 11.1158 35.9308 9.89733C37.5711 9.77695 39.5286 9.75325 41.7203 9.96845C44.1334 10.2054 46.2201 10.6721 47.9126 11.1667C48.0121 12.0458 48.0471 13.2045 47.8233 14.5315C47.4327 16.8477 46.4452 18.5404 45.7792 19.4939V19.494Z" fill="#CC5520"/>
<path d="M49.2331 11.5151C50.6384 12.0915 52.0437 12.6679 53.449 13.2443C53.6119 14.664 53.6868 16.3864 53.5107 18.3274C53.22 21.5312 52.3548 24.1255 51.5755 25.9393C51.8099 25.3054 53.6183 20.1868 50.8175 16.6355C50.4162 16.1267 49.8398 15.548 49.0077 15.0297C49.0801 14.6433 49.1418 14.2275 49.1858 13.7846C49.2686 12.949 49.2712 12.1854 49.2332 11.5151L49.2331 11.5151Z" fill="#CC5520"/>
<path d="M46.1549 9.56314C46.6019 8.5958 47.3328 7.29281 48.5122 5.97573C49.9204 4.40321 51.3986 3.44625 52.4233 2.89252C52.8576 3.81444 53.347 5.11256 53.5935 6.72281C53.9338 8.94669 53.6634 10.8012 53.3952 11.9692C53.2345 10.3915 52.2197 9.03427 50.7719 8.46722C49.1836 7.84526 47.3418 8.2788 46.1549 9.56314Z" fill="#CC5520"/>
<path d="M25.5324 10.9852C25.3736 9.94555 25.2658 8.46734 25.5292 6.73152C25.8486 4.62609 26.5823 3.01142 27.1423 2C28.0247 2.56661 29.1536 3.42356 30.2503 4.67261C31.6939 6.31688 32.4877 7.96416 32.924 9.09436C31.8266 7.63403 29.9383 7.03596 28.2772 7.59802C26.8159 8.09249 25.7502 9.4104 25.5325 10.9852H25.5324Z" fill="#CC5520"/>
<path d="M36.3159 52.563C33.5027 55.9155 32.2571 59.28 31.6918 61.2321C33.1928 58.566 37.4346 51.8548 43.9642 51.2671C44.4175 51.2263 44.8885 51.2144 45.3771 51.2375C45.0572 50.3391 44.7507 49.3637 44.4763 48.3146C44.3132 47.6913 44.1732 47.0865 44.0527 46.5031C42.2282 47.3985 39.13 49.2094 36.3159 52.563V52.563Z" fill="#CC5520"/>
<path d="M30.7075 45.848C29.9562 49.2062 29.4458 53.3555 29.8009 58.0564C29.8921 59.2628 30.0332 60.4122 30.2097 61.5008C30.4902 60.4931 30.8095 59.4465 31.1734 58.367C31.6699 56.8943 32.1965 55.5178 32.7326 54.2404C32.0576 51.4429 31.3826 48.6453 30.7075 45.8479V45.848Z" fill="#CC5520"/>
<path d="M32.991 36.9516C31.0342 33.3893 29.0774 29.827 27.1205 26.2646C28.1177 28.0971 29.2767 29.1133 30.1007 29.6867C35.2174 33.2473 42.84 30.4723 46.7952 29.0277C48.7896 28.2993 50.3284 27.5344 51.2197 27.0631C49.0364 30.4917 46.8531 33.9203 44.6699 37.3489C43.3556 37.7555 41.3328 38.2147 38.843 38.1365C36.3069 38.0568 34.2854 37.4508 32.9909 36.9516H32.991Z" fill="#EA9127"/>
<path d="M35.9311 9.89783C36.1508 10.5986 36.4247 11.8117 36.2174 13.291C36.1485 13.7829 36.0178 14.9104 35.2684 16.0462C34.6813 16.9359 34.2277 17.2221 33.1589 18.2697C32.5417 18.8746 31.6984 19.7689 30.7885 20.9785C31.815 21.3758 33.0168 21.7356 34.379 21.9595C38.9927 22.7179 42.8393 21.4897 44.9255 20.6179C45.2102 20.2434 45.4948 19.8689 45.7796 19.4944C43.8134 18.4033 41.1949 16.629 38.7518 13.8257C37.5565 12.4543 36.6371 11.1049 35.9312 9.89777L35.9311 9.89783Z" fill="#EA9127"/>
<path d="M36.2389 45.622C33.9348 47.0706 31.1694 46.0296 30.7073 45.8477C30.6882 46.88 30.6892 47.9399 30.7136 49.0262C30.7833 52.1287 31.0347 55.0329 31.3975 57.7139C32.3679 54.912 33.7322 51.7541 35.6778 48.4676C36.4051 47.2391 37.1499 46.1005 37.8934 45.0488C37.7485 44.8746 37.6035 44.7003 37.4585 44.5261C37.1513 44.9101 36.7529 45.2988 36.2389 45.622Z" fill="#EA9127"/>
<path d="M31.6918 61.2323C32.3323 59.1918 33.6842 55.7958 36.5778 52.4235C39.2834 49.2705 42.1977 47.4654 44.0527 46.5034C43.8174 45.317 43.6255 43.9916 43.5263 42.5446C43.4748 41.7932 43.4527 41.0744 43.453 40.3918C41.6209 42.2939 39.6017 44.703 37.689 47.6739C34.419 52.7528 32.6689 57.5966 31.6918 61.2322V61.2323Z" fill="#EA9127"/>
<path d="M27.1609 2C26.8469 2.53976 26.5229 3.18523 26.2386 3.9343C25.7773 5.14958 25.5652 6.25685 25.4672 7.13482C25.5143 6.87496 25.7743 5.58806 26.8881 4.92785C28.1582 4.17506 30.0371 4.53461 31.2801 5.95035C30.6743 5.10858 29.8482 4.13349 28.7425 3.1878C28.1974 2.72152 27.6627 2.32937 27.1609 2H27.1609Z" fill="#903518"/>
<path d="M52.4231 2.89252C52.7059 3.44368 52.9951 4.11228 53.2305 4.89217C53.6177 6.17549 53.7269 7.32209 53.7386 8.19429C53.7194 7.9675 53.5785 6.56296 52.4448 5.79173C51.2252 4.96206 49.345 5.19693 48.0485 6.51344C48.6631 5.75752 49.5086 4.87077 50.6354 4.03085C51.2617 3.56406 51.8685 3.191 52.4232 2.89252H52.4231Z" fill="#903518"/>
<path d="M44.6697 37.349C46.3082 34.776 47.9466 32.2029 49.5851 29.6299C48.1339 31.2212 45.1664 34.0311 40.5258 35.6785C37.5164 36.7469 34.8354 36.9599 32.9907 36.9517C34.3669 37.479 36.5495 38.1226 39.2838 38.1412C41.5346 38.1566 43.3878 37.7432 44.6697 37.349Z" fill="#CC5520"/>
</svg>
